/* XPM */
static char * bottom_right_active_xpm[] = {
"7 6 6 1",
" 	c #FFFFFF",
".	c #CDC1A9",
"+	c #58513F",
"@	c #F3E0B8",
"#	c #594115",
"$	c #383A51",
" .+@# $",
"+++@# $",
"@@@@# $",
"##### $",
"      $",
"$$$$$$$"};
