/* XPM */
static char * close_pressed_xpm[] = {
"6 6 3 1",
" 	c #E6C882",
".	c #3E4659",
"+	c #000000",
"  .  .",
"  +  +",
".   ++",
"  +  .",
"  +  +",
".++.++"};
