/* XPM */
static char * left_active_xpm[] = {
"7 1 6 1",
" 	c #383A51",
".	c #FFFFFF",
"+	c #594115",
"@	c #F3E0B8",
"#	c #58513F",
"$	c #CDC1A9",
" .+@#$$"};
