/* XPM */
static char * right_active_xpm[] = {
"7 1 6 1",
" 	c #CDC1A9",
".	c #58513F",
"+	c #F3E0B8",
"@	c #594115",
"#	c #FFFFFF",
"$	c #383A51",
"  .+@#$"};
