/* XPM */
static char * title_4_inactive_xpm[] = {
"7 23 12 1",
" 	c #383A51",
".	c #FFFFFF",
"+	c #594115",
"@	c #F3E0B8",
"#	c #584F3E",
"$	c #232230",
"%	c #CCC1AD",
"&	c #7E87A6",
"*	c #3E4659",
"=	c #58513F",
"-	c #BAA98D",
";	c #CDC1A9",
"       ",
".......",
"+++++++",
"@@@@@@@",
"##@$$$$",
"%#@$&&&",
"%#@$&**",
"%#@$&**",
"%#@$&**",
"%#@$&**",
"%#@$&**",
"%#@$&**",
"%#@$&**",
"%#@$&**",
"%#@$&**",
"%#@$&**",
"%#@$&**",
"##@$$$$",
"@@@@@@@",
"=======",
"-------",
";;;;;;;",
";;;;;;;"};
