/* XPM */
static char * title_5_active_xpm[] = {
"1 23 10 1",
" 	c #383A51",
".	c #FFFFFF",
"+	c #594115",
"@	c #F3E0B8",
"#	c #232230",
"$	c #7E87A6",
"%	c #3E4659",
"&	c #58513F",
"*	c #BAA98D",
"=	c #CDC1A9",
" ",
".",
"+",
"@",
"#",
"$",
"%",
"%",
"%",
"%",
"%",
"%",
"%",
"%",
"%",
"%",
"%",
"#",
"@",
"&",
"*",
"=",
"="};
