/* XPM */
static char * top_right_active_xpm[] = {
"7 23 10 1",
" 	c #383A51",
".	c #FFFFFF",
"+	c #594115",
"@	c #F3E0B8",
"#	c #232230",
"$	c #7E87A6",
"%	c #3E4659",
"&	c #58513F",
"*	c #BAA98D",
"=	c #CDC1A9",
"       ",
"...... ",
"+++++. ",
"@@@@+. ",
"###@+. ",
"$$#@+. ",
"%%#@+. ",
"%%#@+. ",
"%%#@+. ",
"%%#@+. ",
"%%#@+. ",
"%%#@+. ",
"%%#@+. ",
"%%#@+. ",
"%%#@+. ",
"%%#@+. ",
"%%#@+. ",
"###@+. ",
"@@@@+. ",
"&&&@+. ",
"**&@+. ",
"==&@+. ",
"==&@+. "};
