/* XPM */
static char * top_left_inactive_xpm[] = {
"7 23 10 1",
" 	c #383A51",
".	c #FFFFFF",
"+	c #594115",
"@	c #F3E0B8",
"#	c #584F3E",
"$	c #CCC1AD",
"%	c #DDD7C9",
"&	c #58513F",
"*	c #BAA98D",
"=	c #CDC1A9",
"       ",
" ......",
" .+++++",
" .+@@@@",
" .+@###",
" .+@#$$",
" .+@#$%",
" .+@#$%",
" .+@#$%",
" .+@#$%",
" .+@#$%",
" .+@#$%",
" .+@#$%",
" .+@#$%",
" .+@#$%",
" .+@#$%",
" .+@#$%",
" .+@###",
" .+@@@@",
" .+@&&&",
" .+@&**",
" .+@&==",
" .+@&=="};
