#define close_hover_width 11
#define close_hover_height 11
static unsigned char close_hover_bits[] = {
   0xff, 0x07, 0x01, 0x04, 0xfd, 0x05, 0x75, 0x05, 0xad, 0x05, 0xdd, 0x05,
   0xad, 0x05, 0x75, 0x05, 0xfd, 0x05, 0x01, 0x04, 0xff, 0x07 };
