#define desk_hover_width 11
#define desk_hover_height 11
static unsigned char desk_hover_bits[] = {
   0xff, 0x07, 0x01, 0x04, 0xfd, 0x05, 0x25, 0x05, 0xfd, 0x05, 0xfd, 0x05,
   0xfd, 0x05, 0x25, 0x05, 0xfd, 0x05, 0x01, 0x04, 0xff, 0x07 };
