/* XPM */
static char * bottom_active_xpm[] = {
"1 6 5 1",
" 	c #FFFFFF",
".	c #58513F",
"+	c #F3E0B8",
"@	c #594115",
"#	c #383A51",
" ",
".",
"+",
"@",
" ",
"#"};
