/* XPM */
static char * maximize_pressed_xpm[] = {
"6 6 3 1",
" 	c #3E4659",
".	c #E6C882",
"+	c #000000",
"  .   ",
" ...  ",
"..+.. ",
".++ .+",
" +   +",
"      "};
