/* XPM */
static char * title_4_active_xpm[] = {
"7 23 13 1",
" 	c #383A51",
".	c #FFFFFF",
"+	c #594115",
"@	c #F3E0B8",
"#	c #713328",
"$	c #232230",
"%	c #F1B2AD",
"&	c #7E87A6",
"*	c #E26B53",
"=	c #3E4659",
"-	c #58513F",
";	c #BAA98D",
">	c #CDC1A9",
"       ",
".......",
"+++++++",
"@@@@@@@",
"##@$$$$",
"%#@$&&&",
"*#@$&==",
"*#@$&==",
"*#@$&==",
"*#@$&==",
"*#@$&==",
"*#@$&==",
"*#@$&==",
"*#@$&==",
"*#@$&==",
"*#@$&==",
"*#@$&==",
"##@$$$$",
"@@@@@@@",
"-------",
";;;;;;;",
">>>>>>>",
">>>>>>>"};
