/* XPM */
static char * help_active_xpm[] = {
"13 13 3 1",
" 	c None",
".	c #FF00FF",
"+	c #0000FF",
".............",
".............",
".............",
".............",
"....+++++....",
"........+....",
"......+++....",
".............",
"......+......",
".............",
".............",
".............",
"............."};
