/* XPM */
static char * top_right_active_xpm[] = {
"3 20 4 1",
" 	c None",
".	c #0000FF s active_shadow_2",
"+	c #00FFFF s active_hilight_2",
"@	c #FF00FF s active_color_2",
"...",
"++.",
"@+.",
"@+.",
"@+.",
"@+.",
"@+.",
"@+.",
"@+.",
"@+.",
"@+.",
"@+.",
"@+.",
"@+.",
"@+.",
"@+.",
"@+.",
"@+.",
"@+.",
"@+."};
