#define alien_width 8
#define alien_height 8
static unsigned char alien_bits[] = {
   0x7e, 0xdb, 0xdb, 0xdb, 0x7e, 0x3c, 0x3c, 0x18 };
