#define cal_width 8
#define cal_height 8
static unsigned char cal_bits[] = {
   0xff, 0xff, 0x81, 0xb5, 0xa5, 0xa5, 0x81, 0xff };
