#define debian_width 8
#define debian_height 8
static unsigned char debian_bits[] = {
   0xff, 0x81, 0xbd, 0xa5, 0xa1, 0xbf, 0x80, 0xff };
