#define home_width 8
#define home_height 8
static unsigned char home_bits[] = {
   0x18, 0x3c, 0x7e, 0xff, 0x7e, 0x66, 0x66, 0x66 };
