#define spkr_04_width 8
#define spkr_04_height 8
static unsigned char spkr_04_bits[] = {
   0x11, 0x1a, 0x18, 0x36, 0x0e, 0x2e, 0x58, 0x90 };
