/* XPM */
static char * top_left_inactive_xpm[] = {
"3 20 3 1",
" 	c None",
".	c #0000FF s active_shadow_2",
"+	c #FF00FF s active_color_2",
"...",
".++",
".++",
".++",
".++",
".++",
".++",
".++",
".++",
".++",
".++",
".++",
".++",
".++",
".++",
".++",
".++",
".++",
".++",
".++"};
