/* XPM */
static char * close_active_xpm[] = {
"16 20 3 1",
" 	c None",
".	c #272521",
"+	c #786E5B",
"................",
"................",
"................",
"................",
"................",
"....++...++.....",
"...+..+.+..+....",
"...+...+...+....",
"....+.+.+.+.....",
".....+...+......",
"....+.+.+.+.....",
"...+...+...+....",
"...+..+.+..+....",
"....++...++.....",
"................",
"................",
"................",
"................",
"................",
"................"};
