/* XPM */
static char * hide_inactive_xpm[] = {
"16 20 3 1",
" 	c None",
".	c #272521",
"+	c #A7A196",
"................",
"................",
"................",
"................",
"................",
"........+.......",
".......+.+......",
"......+..++.....",
".....+..+..+....",
"....+.....+.....",
"...+..+..+......",
"....++..+.......",
".....+.+........",
"......+.........",
"................",
"................",
"................",
"................",
"................",
"................"};
